<?xml version="1.0" standalone="no"?>
<!DOCTYPE svg PUBLIC "-//W3C//DTD SVG 20010904//EN"
 "http://www.w3.org/TR/2001/REC-SVG-20010904/DTD/svg10.dtd">
<svg version="1.0" xmlns="http://www.w3.org/2000/svg"
 width="700.000000pt" height="700.000000pt" viewBox="0 0 700.000000 700.000000"
 preserveAspectRatio="xMidYMid meet">
<g transform="translate(0.000000,700.000000) scale(0.100000,-0.100000)"
fill="#000000" stroke="none">
<path d="M3238 6095 c-1 -1 -50 -6 -108 -10 -58 -3 -118 -8 -135 -10 -58 -7
-122 -16 -146 -20 -13 -2 -58 -9 -99 -15 -111 -18 -111 -18 -170 -30 -30 -6
-66 -14 -80 -16 -72 -15 -301 -79 -420 -117 -235 -77 -539 -212 -718 -318 -41
-24 -93 -55 -116 -69 -295 -176 -642 -495 -838 -771 -143 -200 -278 -471 -323
-649 -1 -3 -7 -23 -13 -45 -44 -145 -67 -321 -67 -520 0 -169 7 -259 31 -372
9 -43 17 -85 19 -93 9 -45 47 -173 64 -215 61 -149 81 -194 124 -275 220 -417
596 -796 1071 -1078 145 -87 454 -242 480 -242 3 0 25 -9 49 -19 75 -35 393
-141 462 -155 11 -3 47 -12 80 -21 112 -30 330 -72 460 -89 289 -37 338 -41
640 -41 243 0 398 6 511 20 75 9 259 35 284 39 14 3 37 7 52 10 15 2 65 12
110 21 74 15 119 26 318 79 30 8 66 18 80 24 14 5 27 10 30 10 3 0 12 3 20 6
300 104 380 137 585 242 159 82 348 191 390 226 5 5 44 33 85 63 274 198 527
457 689 705 177 270 300 580 337 850 3 25 8 54 11 65 12 50 10 386 -3 479 -34
243 -87 419 -194 641 -139 287 -360 572 -615 790 -32 28 -66 58 -77 68 -80 75
-383 277 -539 360 -47 25 -95 50 -105 56 -55 31 -265 121 -404 173 -217 80
-585 178 -773 204 -81 12 -155 23 -182 28 -11 2 -58 7 -105 11 -47 4 -98 9
-115 12 -33 5 -631 13 -637 8z"/>
</g>
</svg>
